<mxfile host="65bd71144e">
    <diagram id="_10JxhC5-iSWY7v4aJmv" name="Page-1">
        <mxGraphModel dx="5341" dy="375" grid="1" gridSize="10" guides="1" tooltips="1" connect="1" arrows="1" fold="1" page="1" pageScale="1" pageWidth="4681" pageHeight="3300" math="0" shadow="0">
            <root>
                <mxCell id="0"/>
                <mxCell id="1" parent="0"/>
                <mxCell id="19" style="edgeStyle=none;html=1;exitX=0.25;exitY=1;exitDx=0;exitDy=0;entryX=1;entryY=0;entryDx=0;entryDy=0;curved=1;" edge="1" parent="1" source="2" target="10">
                    <mxGeometry relative="1" as="geometry">
                        <Array as="points">
                            <mxPoint x="310" y="490"/>
                        </Array>
                    </mxGeometry>
                </mxCell>
                <mxCell id="2" value="" style="rounded=1;whiteSpace=wrap;html=1;movable=0;resizable=0;rotatable=0;deletable=0;editable=0;connectable=0;" vertex="1" parent="1">
                    <mxGeometry x="280" y="150" width="170" height="290" as="geometry"/>
                </mxCell>
                <mxCell id="3" value="first page of scene" style="text;html=1;align=center;verticalAlign=middle;resizable=0;points=[];autosize=1;strokeColor=none;fillColor=none;" vertex="1" parent="1">
                    <mxGeometry x="305" y="110" width="120" height="30" as="geometry"/>
                </mxCell>
                <mxCell id="4" value="if" style="text;html=1;align=center;verticalAlign=middle;resizable=0;points=[];autosize=1;strokeColor=none;fillColor=none;" vertex="1" parent="1">
                    <mxGeometry x="300" y="170" width="30" height="30" as="geometry"/>
                </mxCell>
                <mxCell id="5" value="" style="whiteSpace=wrap;html=1;" vertex="1" parent="1">
                    <mxGeometry x="290" y="200" width="150" height="30" as="geometry"/>
                </mxCell>
                <mxCell id="6" value="+ Add" style="text;html=1;align=center;verticalAlign=middle;resizable=0;points=[];autosize=1;strokeColor=none;fillColor=none;" vertex="1" parent="1">
                    <mxGeometry x="390" y="170" width="50" height="30" as="geometry"/>
                </mxCell>
                <mxCell id="7" value="then" style="text;html=1;align=center;verticalAlign=middle;resizable=0;points=[];autosize=1;strokeColor=none;fillColor=none;" vertex="1" parent="1">
                    <mxGeometry x="290" y="260" width="50" height="30" as="geometry"/>
                </mxCell>
                <mxCell id="8" value="+ Add" style="text;html=1;align=center;verticalAlign=middle;resizable=0;points=[];autosize=1;strokeColor=none;fillColor=none;" vertex="1" parent="1">
                    <mxGeometry x="390" y="260" width="50" height="30" as="geometry"/>
                </mxCell>
                <mxCell id="9" value="" style="whiteSpace=wrap;html=1;" vertex="1" parent="1">
                    <mxGeometry x="290" y="296" width="150" height="30" as="geometry"/>
                </mxCell>
                <mxCell id="47" style="edgeStyle=none;curved=1;html=1;exitX=0.5;exitY=1;exitDx=0;exitDy=0;entryX=0.5;entryY=0;entryDx=0;entryDy=0;fontSize=7;" edge="1" parent="1" source="10" target="46">
                    <mxGeometry relative="1" as="geometry"/>
                </mxCell>
                <mxCell id="49" style="edgeStyle=none;curved=1;html=1;exitX=1;exitY=1;exitDx=0;exitDy=0;entryX=0;entryY=0;entryDx=0;entryDy=0;fontSize=7;" edge="1" parent="1" source="10" target="48">
                    <mxGeometry relative="1" as="geometry">
                        <Array as="points">
                            <mxPoint x="300" y="810"/>
                        </Array>
                    </mxGeometry>
                </mxCell>
                <mxCell id="90" style="edgeStyle=none;curved=1;html=1;exitX=0;exitY=1;exitDx=0;exitDy=0;entryX=1;entryY=0;entryDx=0;entryDy=0;fontSize=12;" edge="1" parent="1" source="10" target="44">
                    <mxGeometry relative="1" as="geometry"/>
                </mxCell>
                <mxCell id="10" value="" style="rounded=1;whiteSpace=wrap;html=1;" vertex="1" parent="1">
                    <mxGeometry x="100" y="530" width="170" height="230" as="geometry"/>
                </mxCell>
                <mxCell id="11" value="Pop up modal&lt;br&gt;If select condition type" style="text;html=1;align=center;verticalAlign=middle;resizable=0;points=[];autosize=1;strokeColor=none;fillColor=none;" vertex="1" parent="1">
                    <mxGeometry x="115" y="479" width="140" height="40" as="geometry"/>
                </mxCell>
                <mxCell id="196" style="edgeStyle=none;curved=1;html=1;fontSize=12;exitX=0;exitY=0.5;exitDx=0;exitDy=0;" edge="1" parent="1" source="13">
                    <mxGeometry relative="1" as="geometry">
                        <mxPoint x="270" y="280" as="targetPoint"/>
                        <Array as="points">
                            <mxPoint x="-10" y="430"/>
                        </Array>
                    </mxGeometry>
                </mxCell>
                <mxCell id="13" value="tap to run" style="whiteSpace=wrap;html=1;" vertex="1" parent="1">
                    <mxGeometry x="110" y="559" width="150" height="30" as="geometry"/>
                </mxCell>
                <mxCell id="17" value="schedule" style="whiteSpace=wrap;html=1;" vertex="1" parent="1">
                    <mxGeometry x="110" y="655" width="150" height="30" as="geometry"/>
                </mxCell>
                <mxCell id="20" value="" style="rounded=1;whiteSpace=wrap;html=1;" vertex="1" parent="1">
                    <mxGeometry x="460" y="530" width="170" height="180" as="geometry"/>
                </mxCell>
                <mxCell id="23" value="device change" style="whiteSpace=wrap;html=1;" vertex="1" parent="1">
                    <mxGeometry x="470" y="558" width="150" height="30" as="geometry"/>
                </mxCell>
                <mxCell id="27" value="delay action" style="whiteSpace=wrap;html=1;" vertex="1" parent="1">
                    <mxGeometry x="470" y="654" width="150" height="30" as="geometry"/>
                </mxCell>
                <mxCell id="28" style="edgeStyle=none;html=1;curved=1;exitX=0.765;exitY=1;exitDx=0;exitDy=0;exitPerimeter=0;" edge="1" parent="1" source="2">
                    <mxGeometry relative="1" as="geometry">
                        <mxPoint x="408" y="450" as="sourcePoint"/>
                        <mxPoint x="460" y="530" as="targetPoint"/>
                        <Array as="points">
                            <mxPoint x="420" y="490"/>
                        </Array>
                    </mxGeometry>
                </mxCell>
                <mxCell id="29" value="device change" style="whiteSpace=wrap;html=1;" vertex="1" parent="1">
                    <mxGeometry x="110" y="609" width="150" height="30" as="geometry"/>
                </mxCell>
                <mxCell id="31" value="run another scene" style="whiteSpace=wrap;html=1;" vertex="1" parent="1">
                    <mxGeometry x="470" y="608" width="150" height="30" as="geometry"/>
                </mxCell>
                <mxCell id="33" value="delete" style="whiteSpace=wrap;html=1;" vertex="1" parent="1">
                    <mxGeometry x="400" y="296" width="40" height="30" as="geometry"/>
                </mxCell>
                <mxCell id="34" value="" style="ellipse;whiteSpace=wrap;html=1;" vertex="1" parent="1">
                    <mxGeometry x="300" y="301" width="20" height="20" as="geometry"/>
                </mxCell>
                <mxCell id="35" value="xxxxxx" style="text;html=1;align=center;verticalAlign=middle;resizable=0;points=[];autosize=1;strokeColor=none;fillColor=none;" vertex="1" parent="1">
                    <mxGeometry x="313" y="291" width="60" height="30" as="geometry"/>
                </mxCell>
                <mxCell id="38" value="" style="whiteSpace=wrap;html=1;" vertex="1" parent="1">
                    <mxGeometry x="290" y="200" width="150" height="30" as="geometry"/>
                </mxCell>
                <mxCell id="39" value="delete" style="whiteSpace=wrap;html=1;" vertex="1" parent="1">
                    <mxGeometry x="400" y="200" width="40" height="30" as="geometry"/>
                </mxCell>
                <mxCell id="40" value="" style="ellipse;whiteSpace=wrap;html=1;" vertex="1" parent="1">
                    <mxGeometry x="300" y="205" width="20" height="20" as="geometry"/>
                </mxCell>
                <mxCell id="41" value="xxxxxx" style="text;html=1;align=center;verticalAlign=middle;resizable=0;points=[];autosize=1;strokeColor=none;fillColor=none;" vertex="1" parent="1">
                    <mxGeometry x="312" y="194" width="60" height="30" as="geometry"/>
                </mxCell>
                <mxCell id="42" value="&lt;font style=&quot;font-size: 7px;&quot;&gt;xxxxxx&lt;/font&gt;" style="text;html=1;align=center;verticalAlign=middle;resizable=0;points=[];autosize=1;strokeColor=none;fillColor=none;strokeWidth=1;" vertex="1" parent="1">
                    <mxGeometry x="316" y="205" width="40" height="30" as="geometry"/>
                </mxCell>
                <mxCell id="43" value="&lt;font style=&quot;font-size: 7px;&quot;&gt;xxxxxx&lt;/font&gt;" style="text;html=1;align=center;verticalAlign=middle;resizable=0;points=[];autosize=1;strokeColor=none;fillColor=none;strokeWidth=1;" vertex="1" parent="1">
                    <mxGeometry x="316" y="301" width="40" height="30" as="geometry"/>
                </mxCell>
                <mxCell id="21" value="Pop up modal&lt;br&gt;Then select condition type" style="text;html=1;align=center;verticalAlign=middle;resizable=0;points=[];autosize=1;strokeColor=none;fillColor=none;" vertex="1" parent="1">
                    <mxGeometry x="465" y="479" width="160" height="40" as="geometry"/>
                </mxCell>
                <mxCell id="93" style="edgeStyle=none;curved=1;html=1;exitX=0;exitY=1;exitDx=0;exitDy=0;fontSize=12;entryX=1;entryY=0;entryDx=0;entryDy=0;" edge="1" parent="1" source="44" target="96">
                    <mxGeometry relative="1" as="geometry">
                        <mxPoint x="-540" y="1284.4444444444443" as="targetPoint"/>
                    </mxGeometry>
                </mxCell>
                <mxCell id="134" style="edgeStyle=none;curved=1;html=1;entryX=0.25;entryY=0;entryDx=0;entryDy=0;fontSize=12;" edge="1" parent="1" source="44" target="127">
                    <mxGeometry relative="1" as="geometry"/>
                </mxCell>
                <mxCell id="44" value="" style="rounded=1;whiteSpace=wrap;html=1;strokeWidth=1;fontSize=7;" vertex="1" parent="1">
                    <mxGeometry x="-460" y="870" width="180" height="310" as="geometry"/>
                </mxCell>
                <mxCell id="197" style="edgeStyle=none;curved=1;html=1;fontSize=12;exitX=0;exitY=0.5;exitDx=0;exitDy=0;" edge="1" parent="1" source="46">
                    <mxGeometry relative="1" as="geometry">
                        <mxPoint x="280" y="260" as="targetPoint"/>
                        <Array as="points">
                            <mxPoint x="-270" y="490"/>
                        </Array>
                    </mxGeometry>
                </mxCell>
                <mxCell id="46" value="" style="rounded=1;whiteSpace=wrap;html=1;strokeWidth=1;fontSize=7;" vertex="1" parent="1">
                    <mxGeometry x="60" y="866" width="180" height="310" as="geometry"/>
                </mxCell>
                <mxCell id="48" value="" style="rounded=1;whiteSpace=wrap;html=1;strokeWidth=1;fontSize=7;" vertex="1" parent="1">
                    <mxGeometry x="340" y="830" width="180" height="310" as="geometry"/>
                </mxCell>
                <mxCell id="50" value="&lt;font style=&quot;font-size: 12px;&quot;&gt;device change&lt;/font&gt;" style="text;html=1;align=center;verticalAlign=middle;resizable=0;points=[];autosize=1;strokeColor=none;fillColor=none;fontSize=7;" vertex="1" parent="1">
                    <mxGeometry x="-420" y="830" width="100" height="30" as="geometry"/>
                </mxCell>
                <mxCell id="51" value="" style="whiteSpace=wrap;html=1;" vertex="1" parent="1">
                    <mxGeometry x="-455" y="929" width="170" height="30" as="geometry"/>
                </mxCell>
                <mxCell id="53" value="" style="ellipse;whiteSpace=wrap;html=1;" vertex="1" parent="1">
                    <mxGeometry x="-446" y="934" width="20" height="20" as="geometry"/>
                </mxCell>
                <mxCell id="54" value="switch 1" style="text;html=1;align=center;verticalAlign=middle;resizable=0;points=[];autosize=1;strokeColor=none;fillColor=none;" vertex="1" parent="1">
                    <mxGeometry x="-436" y="924" width="70" height="30" as="geometry"/>
                </mxCell>
                <mxCell id="55" value="&lt;font style=&quot;font-size: 7px;&quot;&gt;kitchen&lt;/font&gt;" style="text;html=1;align=center;verticalAlign=middle;resizable=0;points=[];autosize=1;strokeColor=none;fillColor=none;strokeWidth=1;" vertex="1" parent="1">
                    <mxGeometry x="-435" y="934" width="50" height="30" as="geometry"/>
                </mxCell>
                <mxCell id="56" value="" style="whiteSpace=wrap;html=1;" vertex="1" parent="1">
                    <mxGeometry x="-455" y="964" width="170" height="30" as="geometry"/>
                </mxCell>
                <mxCell id="57" value="" style="ellipse;whiteSpace=wrap;html=1;" vertex="1" parent="1">
                    <mxGeometry x="-446" y="969" width="20" height="20" as="geometry"/>
                </mxCell>
                <mxCell id="58" value="thermostat" style="text;html=1;align=center;verticalAlign=middle;resizable=0;points=[];autosize=1;strokeColor=none;fillColor=none;" vertex="1" parent="1">
                    <mxGeometry x="-435" y="959" width="80" height="30" as="geometry"/>
                </mxCell>
                <mxCell id="59" value="&lt;font style=&quot;font-size: 7px;&quot;&gt;room&lt;/font&gt;" style="text;html=1;align=center;verticalAlign=middle;resizable=0;points=[];autosize=1;strokeColor=none;fillColor=none;strokeWidth=1;" vertex="1" parent="1">
                    <mxGeometry x="-434" y="969" width="40" height="30" as="geometry"/>
                </mxCell>
                <mxCell id="60" value="" style="whiteSpace=wrap;html=1;" vertex="1" parent="1">
                    <mxGeometry x="-455" y="999" width="170" height="30" as="geometry"/>
                </mxCell>
                <mxCell id="61" value="" style="ellipse;whiteSpace=wrap;html=1;" vertex="1" parent="1">
                    <mxGeometry x="-446" y="1004" width="20" height="20" as="geometry"/>
                </mxCell>
                <mxCell id="62" value="curtain" style="text;html=1;align=center;verticalAlign=middle;resizable=0;points=[];autosize=1;strokeColor=none;fillColor=none;" vertex="1" parent="1">
                    <mxGeometry x="-434" y="994" width="60" height="30" as="geometry"/>
                </mxCell>
                <mxCell id="63" value="&lt;font style=&quot;font-size: 7px;&quot;&gt;master room&lt;/font&gt;" style="text;html=1;align=center;verticalAlign=middle;resizable=0;points=[];autosize=1;strokeColor=none;fillColor=none;strokeWidth=1;" vertex="1" parent="1">
                    <mxGeometry x="-432" y="1004" width="60" height="30" as="geometry"/>
                </mxCell>
                <mxCell id="64" value="" style="whiteSpace=wrap;html=1;" vertex="1" parent="1">
                    <mxGeometry x="-455" y="1034" width="170" height="30" as="geometry"/>
                </mxCell>
                <mxCell id="65" value="" style="ellipse;whiteSpace=wrap;html=1;" vertex="1" parent="1">
                    <mxGeometry x="-446" y="1039" width="20" height="20" as="geometry"/>
                </mxCell>
                <mxCell id="66" value="xxxxxx" style="text;html=1;align=center;verticalAlign=middle;resizable=0;points=[];autosize=1;strokeColor=none;fillColor=none;" vertex="1" parent="1">
                    <mxGeometry x="-433" y="1029" width="60" height="30" as="geometry"/>
                </mxCell>
                <mxCell id="67" value="&lt;font style=&quot;font-size: 7px;&quot;&gt;xxxxxx&lt;/font&gt;" style="text;html=1;align=center;verticalAlign=middle;resizable=0;points=[];autosize=1;strokeColor=none;fillColor=none;strokeWidth=1;" vertex="1" parent="1">
                    <mxGeometry x="-430" y="1039" width="40" height="30" as="geometry"/>
                </mxCell>
                <mxCell id="76" value="" style="whiteSpace=wrap;html=1;" vertex="1" parent="1">
                    <mxGeometry x="-455" y="1069" width="170" height="30" as="geometry"/>
                </mxCell>
                <mxCell id="77" value="" style="ellipse;whiteSpace=wrap;html=1;" vertex="1" parent="1">
                    <mxGeometry x="-446" y="1074" width="20" height="20" as="geometry"/>
                </mxCell>
                <mxCell id="78" value="xxxxxx" style="text;html=1;align=center;verticalAlign=middle;resizable=0;points=[];autosize=1;strokeColor=none;fillColor=none;" vertex="1" parent="1">
                    <mxGeometry x="-433" y="1064" width="60" height="30" as="geometry"/>
                </mxCell>
                <mxCell id="79" value="&lt;font style=&quot;font-size: 7px;&quot;&gt;xxxxxx&lt;/font&gt;" style="text;html=1;align=center;verticalAlign=middle;resizable=0;points=[];autosize=1;strokeColor=none;fillColor=none;strokeWidth=1;" vertex="1" parent="1">
                    <mxGeometry x="-430" y="1074" width="40" height="30" as="geometry"/>
                </mxCell>
                <mxCell id="80" value="" style="whiteSpace=wrap;html=1;" vertex="1" parent="1">
                    <mxGeometry x="-455" y="1104" width="170" height="30" as="geometry"/>
                </mxCell>
                <mxCell id="81" value="" style="ellipse;whiteSpace=wrap;html=1;" vertex="1" parent="1">
                    <mxGeometry x="-446" y="1109" width="20" height="20" as="geometry"/>
                </mxCell>
                <mxCell id="82" value="xxxxxx" style="text;html=1;align=center;verticalAlign=middle;resizable=0;points=[];autosize=1;strokeColor=none;fillColor=none;" vertex="1" parent="1">
                    <mxGeometry x="-433" y="1099" width="60" height="30" as="geometry"/>
                </mxCell>
                <mxCell id="83" value="&lt;font style=&quot;font-size: 7px;&quot;&gt;xxxxxx&lt;/font&gt;" style="text;html=1;align=center;verticalAlign=middle;resizable=0;points=[];autosize=1;strokeColor=none;fillColor=none;strokeWidth=1;" vertex="1" parent="1">
                    <mxGeometry x="-430" y="1109" width="40" height="30" as="geometry"/>
                </mxCell>
                <mxCell id="84" value="Back" style="text;html=1;align=center;verticalAlign=middle;resizable=0;points=[];autosize=1;strokeColor=none;fillColor=none;fontSize=12;" vertex="1" parent="1">
                    <mxGeometry x="-460" y="880" width="50" height="30" as="geometry"/>
                </mxCell>
                <mxCell id="86" value="Back" style="text;html=1;align=center;verticalAlign=middle;resizable=0;points=[];autosize=1;strokeColor=none;fillColor=none;fontSize=12;" vertex="1" parent="1">
                    <mxGeometry x="60" y="876" width="50" height="30" as="geometry"/>
                </mxCell>
                <mxCell id="87" value="next" style="text;html=1;align=center;verticalAlign=middle;resizable=0;points=[];autosize=1;strokeColor=none;fillColor=none;fontSize=12;" vertex="1" parent="1">
                    <mxGeometry x="190" y="876" width="50" height="30" as="geometry"/>
                </mxCell>
                <mxCell id="88" value="Back" style="text;html=1;align=center;verticalAlign=middle;resizable=0;points=[];autosize=1;strokeColor=none;fillColor=none;fontSize=12;" vertex="1" parent="1">
                    <mxGeometry x="340" y="840" width="50" height="30" as="geometry"/>
                </mxCell>
                <mxCell id="89" value="next" style="text;html=1;align=center;verticalAlign=middle;resizable=0;points=[];autosize=1;strokeColor=none;fillColor=none;fontSize=12;" vertex="1" parent="1">
                    <mxGeometry x="470" y="840" width="50" height="30" as="geometry"/>
                </mxCell>
                <mxCell id="125" style="edgeStyle=none;curved=1;html=1;exitX=0.25;exitY=0;exitDx=0;exitDy=0;fontSize=12;" edge="1" parent="1" source="96">
                    <mxGeometry relative="1" as="geometry">
                        <mxPoint x="280" y="250" as="targetPoint"/>
                        <Array as="points">
                            <mxPoint x="-740" y="480"/>
                        </Array>
                    </mxGeometry>
                </mxCell>
                <mxCell id="96" value="" style="rounded=1;whiteSpace=wrap;html=1;strokeWidth=1;fontSize=7;" vertex="1" parent="1">
                    <mxGeometry x="-720" y="1290" width="180" height="310" as="geometry"/>
                </mxCell>
                <mxCell id="97" value="&lt;span style=&quot;font-size: 12px;&quot;&gt;switch options&lt;/span&gt;" style="text;html=1;align=center;verticalAlign=middle;resizable=0;points=[];autosize=1;strokeColor=none;fillColor=none;fontSize=7;" vertex="1" parent="1">
                    <mxGeometry x="-672" y="1250" width="100" height="30" as="geometry"/>
                </mxCell>
                <mxCell id="98" value="" style="whiteSpace=wrap;html=1;" vertex="1" parent="1">
                    <mxGeometry x="-715" y="1349" width="170" height="30" as="geometry"/>
                </mxCell>
                <mxCell id="100" value="status :" style="text;html=1;align=center;verticalAlign=middle;resizable=0;points=[];autosize=1;strokeColor=none;fillColor=none;" vertex="1" parent="1">
                    <mxGeometry x="-721" y="1349" width="60" height="30" as="geometry"/>
                </mxCell>
                <mxCell id="122" value="Back" style="text;html=1;align=center;verticalAlign=middle;resizable=0;points=[];autosize=1;strokeColor=none;fillColor=none;fontSize=12;" vertex="1" parent="1">
                    <mxGeometry x="-720" y="1300" width="50" height="30" as="geometry"/>
                </mxCell>
                <mxCell id="123" value="next" style="text;html=1;align=center;verticalAlign=middle;resizable=0;points=[];autosize=1;strokeColor=none;fillColor=none;fontSize=12;" vertex="1" parent="1">
                    <mxGeometry x="-590" y="1300" width="50" height="30" as="geometry"/>
                </mxCell>
                <mxCell id="126" value="add new row" style="text;html=1;align=center;verticalAlign=middle;resizable=0;points=[];autosize=1;strokeColor=none;fillColor=none;fontSize=12;rotation=-15;" vertex="1" parent="1">
                    <mxGeometry x="95" y="255" width="90" height="30" as="geometry"/>
                </mxCell>
                <mxCell id="127" value="" style="rounded=1;whiteSpace=wrap;html=1;strokeWidth=1;fontSize=7;" vertex="1" parent="1">
                    <mxGeometry x="-465" y="1290" width="180" height="310" as="geometry"/>
                </mxCell>
                <mxCell id="128" value="&lt;span style=&quot;font-size: 12px;&quot;&gt;thermostat options&lt;/span&gt;" style="text;html=1;align=center;verticalAlign=middle;resizable=0;points=[];autosize=1;strokeColor=none;fillColor=none;fontSize=7;" vertex="1" parent="1">
                    <mxGeometry x="-419" y="1250" width="120" height="30" as="geometry"/>
                </mxCell>
                <mxCell id="129" value="" style="whiteSpace=wrap;html=1;" vertex="1" parent="1">
                    <mxGeometry x="-460" y="1349" width="170" height="30" as="geometry"/>
                </mxCell>
                <mxCell id="176" style="edgeStyle=none;curved=1;html=1;entryX=0.5;entryY=0;entryDx=0;entryDy=0;fontSize=12;" edge="1" parent="1" source="130" target="158">
                    <mxGeometry relative="1" as="geometry">
                        <Array as="points">
                            <mxPoint x="-510" y="1390"/>
                            <mxPoint x="-510" y="1570"/>
                        </Array>
                    </mxGeometry>
                </mxCell>
                <mxCell id="130" value="status :" style="text;html=1;align=center;verticalAlign=middle;resizable=0;points=[];autosize=1;strokeColor=none;fillColor=none;" vertex="1" parent="1">
                    <mxGeometry x="-466" y="1349" width="60" height="30" as="geometry"/>
                </mxCell>
                <mxCell id="131" value="Back" style="text;html=1;align=center;verticalAlign=middle;resizable=0;points=[];autosize=1;strokeColor=none;fillColor=none;fontSize=12;" vertex="1" parent="1">
                    <mxGeometry x="-465" y="1300" width="50" height="30" as="geometry"/>
                </mxCell>
                <mxCell id="188" style="edgeStyle=none;curved=1;html=1;entryX=0.5;entryY=0;entryDx=0;entryDy=0;fontSize=12;exitX=1;exitY=0.5;exitDx=0;exitDy=0;" edge="1" parent="1" source="135" target="167">
                    <mxGeometry relative="1" as="geometry">
                        <Array as="points">
                            <mxPoint x="-170" y="1450"/>
                        </Array>
                    </mxGeometry>
                </mxCell>
                <mxCell id="135" value="" style="whiteSpace=wrap;html=1;" vertex="1" parent="1">
                    <mxGeometry x="-459" y="1390" width="170" height="30" as="geometry"/>
                </mxCell>
                <mxCell id="136" value="speed :" style="text;html=1;align=center;verticalAlign=middle;resizable=0;points=[];autosize=1;strokeColor=none;fillColor=none;" vertex="1" parent="1">
                    <mxGeometry x="-465" y="1390" width="60" height="30" as="geometry"/>
                </mxCell>
                <mxCell id="187" style="edgeStyle=none;curved=1;html=1;entryX=0.5;entryY=0;entryDx=0;entryDy=0;fontSize=12;" edge="1" parent="1" source="140" target="178">
                    <mxGeometry relative="1" as="geometry"/>
                </mxCell>
                <mxCell id="140" value="" style="whiteSpace=wrap;html=1;" vertex="1" parent="1">
                    <mxGeometry x="-459" y="1430" width="170" height="30" as="geometry"/>
                </mxCell>
                <mxCell id="141" value="temp:&amp;nbsp;" style="text;html=1;align=center;verticalAlign=middle;resizable=0;points=[];autosize=1;strokeColor=none;fillColor=none;" vertex="1" parent="1">
                    <mxGeometry x="-465" y="1430" width="60" height="30" as="geometry"/>
                </mxCell>
                <mxCell id="149" value="" style="html=1;shadow=0;dashed=0;shape=mxgraph.bootstrap.rrect;rSize=5;strokeColor=none;strokeWidth=1;fillColor=#6C767D;fontColor=#ffffff;whiteSpace=wrap;align=right;verticalAlign=middle;fontStyle=0;fontSize=14;spacingRight=20;" vertex="1" parent="1">
                    <mxGeometry x="-604" y="1354" width="50" height="20" as="geometry"/>
                </mxCell>
                <mxCell id="150" value="" style="shape=triangle;direction=south;fillColor=#ffffff;strokeColor=none;perimeter=none;strokeWidth=1;fontSize=12;" vertex="1" parent="149">
                    <mxGeometry x="1" y="0.5" width="10" height="5" relative="1" as="geometry">
                        <mxPoint x="-17" y="-2.5" as="offset"/>
                    </mxGeometry>
                </mxCell>
                <mxCell id="151" value="" style="whiteSpace=wrap;html=1;" vertex="1" parent="1">
                    <mxGeometry x="-1224" y="1615" width="170" height="30" as="geometry"/>
                </mxCell>
                <mxCell id="152" value="speed :" style="text;html=1;align=center;verticalAlign=middle;resizable=0;points=[];autosize=1;strokeColor=none;fillColor=none;" vertex="1" parent="1">
                    <mxGeometry x="-1230" y="1615" width="60" height="30" as="geometry"/>
                </mxCell>
                <mxCell id="153" value="" style="html=1;shadow=0;dashed=0;shape=mxgraph.bootstrap.rrect;rSize=5;strokeColor=none;strokeWidth=1;fillColor=#6C767D;fontColor=#ffffff;whiteSpace=wrap;align=right;verticalAlign=middle;fontStyle=0;fontSize=14;spacingRight=20;" vertex="1" parent="1">
                    <mxGeometry x="-1109" y="1620" width="50" height="20" as="geometry"/>
                </mxCell>
                <mxCell id="154" value="" style="shape=triangle;direction=south;fillColor=#ffffff;strokeColor=none;perimeter=none;strokeWidth=1;fontSize=12;" vertex="1" parent="153">
                    <mxGeometry x="1" y="0.5" width="10" height="5" relative="1" as="geometry">
                        <mxPoint x="-17" y="-2.5" as="offset"/>
                    </mxGeometry>
                </mxCell>
                <mxCell id="155" value="" style="whiteSpace=wrap;html=1;" vertex="1" parent="1">
                    <mxGeometry x="-1224" y="1655" width="170" height="30" as="geometry"/>
                </mxCell>
                <mxCell id="156" value="temp:&amp;nbsp;" style="text;html=1;align=center;verticalAlign=middle;resizable=0;points=[];autosize=1;strokeColor=none;fillColor=none;" vertex="1" parent="1">
                    <mxGeometry x="-1230" y="1655" width="60" height="30" as="geometry"/>
                </mxCell>
                <mxCell id="157" value="temp" style="html=1;shadow=0;dashed=0;shape=mxgraph.bootstrap.rrect;rSize=5;strokeColor=#999999;fillColor=#ffffff;fontColor=#777777;whiteSpace=wrap;align=left;verticalAlign=middle;fontStyle=0;fontSize=14;spacing=15;strokeWidth=1;" vertex="1" parent="1">
                    <mxGeometry x="-1148" y="1660" width="90" height="20" as="geometry"/>
                </mxCell>
                <mxCell id="191" style="edgeStyle=none;curved=1;html=1;fontSize=12;" edge="1" parent="1" source="158">
                    <mxGeometry relative="1" as="geometry">
                        <mxPoint x="270" y="190" as="targetPoint"/>
                        <Array as="points">
                            <mxPoint x="-1530" y="790"/>
                        </Array>
                    </mxGeometry>
                </mxCell>
                <mxCell id="158" value="" style="rounded=1;whiteSpace=wrap;html=1;strokeWidth=1;fontSize=7;" vertex="1" parent="1">
                    <mxGeometry x="-646" y="1650" width="180" height="310" as="geometry"/>
                </mxCell>
                <mxCell id="159" value="" style="whiteSpace=wrap;html=1;" vertex="1" parent="1">
                    <mxGeometry x="-641" y="1709" width="170" height="30" as="geometry"/>
                </mxCell>
                <mxCell id="160" value="status :" style="text;html=1;align=center;verticalAlign=middle;resizable=0;points=[];autosize=1;strokeColor=none;fillColor=none;" vertex="1" parent="1">
                    <mxGeometry x="-647" y="1709" width="60" height="30" as="geometry"/>
                </mxCell>
                <mxCell id="161" value="Back" style="text;html=1;align=center;verticalAlign=middle;resizable=0;points=[];autosize=1;strokeColor=none;fillColor=none;fontSize=12;" vertex="1" parent="1">
                    <mxGeometry x="-646" y="1660" width="50" height="30" as="geometry"/>
                </mxCell>
                <mxCell id="162" value="next" style="text;html=1;align=center;verticalAlign=middle;resizable=0;points=[];autosize=1;strokeColor=none;fillColor=none;fontSize=12;" vertex="1" parent="1">
                    <mxGeometry x="-516" y="1660" width="50" height="30" as="geometry"/>
                </mxCell>
                <mxCell id="167" value="" style="rounded=1;whiteSpace=wrap;html=1;strokeWidth=1;fontSize=7;" vertex="1" parent="1">
                    <mxGeometry x="-199" y="1650" width="180" height="310" as="geometry"/>
                </mxCell>
                <mxCell id="170" value="Back" style="text;html=1;align=center;verticalAlign=middle;resizable=0;points=[];autosize=1;strokeColor=none;fillColor=none;fontSize=12;" vertex="1" parent="1">
                    <mxGeometry x="-199" y="1660" width="50" height="30" as="geometry"/>
                </mxCell>
                <mxCell id="171" value="next" style="text;html=1;align=center;verticalAlign=middle;resizable=0;points=[];autosize=1;strokeColor=none;fillColor=none;fontSize=12;" vertex="1" parent="1">
                    <mxGeometry x="-69" y="1660" width="50" height="30" as="geometry"/>
                </mxCell>
                <mxCell id="174" value="" style="whiteSpace=wrap;html=1;" vertex="1" parent="1">
                    <mxGeometry x="-193" y="1716" width="170" height="30" as="geometry"/>
                </mxCell>
                <mxCell id="175" value="temp:&amp;nbsp;" style="text;html=1;align=center;verticalAlign=middle;resizable=0;points=[];autosize=1;strokeColor=none;fillColor=none;" vertex="1" parent="1">
                    <mxGeometry x="-199" y="1716" width="60" height="30" as="geometry"/>
                </mxCell>
                <mxCell id="178" value="" style="rounded=1;whiteSpace=wrap;html=1;strokeWidth=1;fontSize=7;" vertex="1" parent="1">
                    <mxGeometry x="-425" y="1655" width="180" height="310" as="geometry"/>
                </mxCell>
                <mxCell id="181" value="Back" style="text;html=1;align=center;verticalAlign=middle;resizable=0;points=[];autosize=1;strokeColor=none;fillColor=none;fontSize=12;" vertex="1" parent="1">
                    <mxGeometry x="-425" y="1665" width="50" height="30" as="geometry"/>
                </mxCell>
                <mxCell id="182" value="next" style="text;html=1;align=center;verticalAlign=middle;resizable=0;points=[];autosize=1;strokeColor=none;fillColor=none;fontSize=12;" vertex="1" parent="1">
                    <mxGeometry x="-295" y="1665" width="50" height="30" as="geometry"/>
                </mxCell>
                <mxCell id="183" value="" style="whiteSpace=wrap;html=1;" vertex="1" parent="1">
                    <mxGeometry x="-419" y="1714" width="170" height="30" as="geometry"/>
                </mxCell>
                <mxCell id="184" value="speed :" style="text;html=1;align=center;verticalAlign=middle;resizable=0;points=[];autosize=1;strokeColor=none;fillColor=none;" vertex="1" parent="1">
                    <mxGeometry x="-425" y="1714" width="60" height="30" as="geometry"/>
                </mxCell>
                <mxCell id="189" value="" style="html=1;shadow=0;dashed=0;shape=mxgraph.bootstrap.rrect;rSize=5;strokeColor=none;strokeWidth=1;fillColor=#6C767D;fontColor=#ffffff;whiteSpace=wrap;align=right;verticalAlign=middle;fontStyle=0;fontSize=14;spacingRight=20;" vertex="1" parent="1">
                    <mxGeometry x="-530" y="1714" width="50" height="20" as="geometry"/>
                </mxCell>
                <mxCell id="190" value="" style="shape=triangle;direction=south;fillColor=#ffffff;strokeColor=none;perimeter=none;strokeWidth=1;fontSize=12;" vertex="1" parent="189">
                    <mxGeometry x="1" y="0.5" width="10" height="5" relative="1" as="geometry">
                        <mxPoint x="-17" y="-2.5" as="offset"/>
                    </mxGeometry>
                </mxCell>
                <mxCell id="192" value="" style="html=1;shadow=0;dashed=0;shape=mxgraph.bootstrap.rrect;rSize=5;strokeColor=none;strokeWidth=1;fillColor=#6C767D;fontColor=#ffffff;whiteSpace=wrap;align=right;verticalAlign=middle;fontStyle=0;fontSize=14;spacingRight=20;" vertex="1" parent="1">
                    <mxGeometry x="-309" y="1719" width="50" height="20" as="geometry"/>
                </mxCell>
                <mxCell id="193" value="" style="shape=triangle;direction=south;fillColor=#ffffff;strokeColor=none;perimeter=none;strokeWidth=1;fontSize=12;" vertex="1" parent="192">
                    <mxGeometry x="1" y="0.5" width="10" height="5" relative="1" as="geometry">
                        <mxPoint x="-17" y="-2.5" as="offset"/>
                    </mxGeometry>
                </mxCell>
                <mxCell id="194" value="" style="html=1;shadow=0;dashed=0;shape=mxgraph.bootstrap.rrect;rSize=5;strokeColor=none;strokeWidth=1;fillColor=#6C767D;fontColor=#ffffff;whiteSpace=wrap;align=right;verticalAlign=middle;fontStyle=0;fontSize=14;spacingRight=20;" vertex="1" parent="1">
                    <mxGeometry x="-80" y="1721" width="50" height="20" as="geometry"/>
                </mxCell>
                <mxCell id="195" value="" style="shape=triangle;direction=south;fillColor=#ffffff;strokeColor=none;perimeter=none;strokeWidth=1;fontSize=12;" vertex="1" parent="194">
                    <mxGeometry x="1" y="0.5" width="10" height="5" relative="1" as="geometry">
                        <mxPoint x="-17" y="-2.5" as="offset"/>
                    </mxGeometry>
                </mxCell>
                <mxCell id="198" value="schedule" style="text;html=1;align=center;verticalAlign=middle;resizable=0;points=[];autosize=1;strokeColor=none;fillColor=none;fontSize=12;rotation=-70;" vertex="1" parent="1">
                    <mxGeometry x="115" y="800" width="70" height="30" as="geometry"/>
                </mxCell>
            </root>
        </mxGraphModel>
    </diagram>
</mxfile>